<svg width="27" height="34" viewBox="0 0 27 34" fill="none" xmlns="http://www.w3.org/2000/svg">
<path d="M21.8333 23.1675V23.7888L22.2727 24.2281L24.712 26.6675H1.95465L4.39399 24.2281L4.83333 23.7888V23.1675V14.8341C4.83333 10.2239 7.22656 6.69691 11.1792 5.7604L12.3333 5.48694V4.30081V3.16748C12.3333 2.61257 12.7784 2.16748 13.3333 2.16748C13.8882 2.16748 14.3333 2.61257 14.3333 3.16748V4.30081V5.48599L15.4864 5.76013C19.4244 6.69644 21.8333 10.2419 21.8333 14.8341V23.1675ZM14.3814 31.3341C14.0834 31.5438 13.7216 31.6675 13.3333 31.6675C12.9397 31.6675 12.5761 31.544 12.2782 31.3341H14.3814Z" stroke="#696363" stroke-width="3"/>
</svg>
