<!-- <svg width="194" height="69" viewBox="0 0 194 69" fill="none" xmlns="http://www.w3.org/2000/svg">
    <path d="M39.8372 0L79.6743 69H0L39.8372 0Z" fill="#BD00FF"/>
    <path d="M40 20L63 60H17L40 20Z" fill="white" fill-opacity="0.7"/>
    <path d="M40 26L58 57H22L40 26Z" fill="white"/>
    <path d="M93.3939 44.5C90.2289 44.5 87.8131 43.6332 86.1464 41.8997C84.4984 40.1662 83.6743 37.7042 83.6743 34.5138C83.6743 32.9278 83.9272 31.5171 84.4328 30.2815C84.9384 29.0274 85.6314 27.9763 86.5116 27.1279C87.3917 26.2612 88.4405 25.6065 89.6578 25.1639C90.875 24.7213 92.1953 24.5 93.6186 24.5C94.4426 24.5 95.1917 24.5645 95.8659 24.6936C96.5401 24.8043 97.13 24.9426 97.6356 25.1086C98.1413 25.2561 98.5626 25.4129 98.8997 25.5788C99.2368 25.7448 99.4803 25.8739 99.6301 25.9661L98.366 29.4516C97.7667 29.1381 97.0644 28.8707 96.2592 28.6494C95.4726 28.4281 94.5737 28.3174 93.5624 28.3174C92.8882 28.3174 92.2234 28.4281 91.568 28.6494C90.9312 28.8707 90.36 29.2303 89.8544 29.7282C89.3675 30.2077 88.9742 30.8347 88.6746 31.6093C88.3749 32.3838 88.2251 33.3243 88.2251 34.4308C88.2251 35.316 88.3187 36.1459 88.506 36.9205C88.712 37.6766 89.0304 38.3313 89.4611 38.8845C89.9106 39.4378 90.4911 39.8804 91.2028 40.2123C91.9144 40.5258 92.7759 40.6826 93.7872 40.6826C94.4239 40.6826 94.9951 40.6457 95.5007 40.5719C96.0063 40.4982 96.4558 40.4152 96.8491 40.323C97.2424 40.2123 97.5888 40.0924 97.8885 39.9633C98.1881 39.8343 98.4596 39.7144 98.7031 39.6037L99.911 43.0616C99.293 43.4304 98.4222 43.7623 97.2985 44.0574C96.1749 44.3525 94.8733 44.5 93.3939 44.5Z" fill="#3B3B49"/>
    <path d="M105.699 34.5138C105.699 35.4544 105.811 36.3027 106.036 37.0588C106.28 37.8149 106.617 38.4696 107.047 39.0228C107.497 39.5576 108.04 39.9726 108.677 40.2676C109.313 40.5627 110.044 40.7102 110.868 40.7102C111.673 40.7102 112.394 40.5627 113.031 40.2676C113.686 39.9726 114.229 39.5576 114.66 39.0228C115.11 38.4696 115.447 37.8149 115.671 37.0588C115.915 36.3027 116.037 35.4544 116.037 34.5138C116.037 33.5733 115.915 32.725 115.671 31.9689C115.447 31.1943 115.11 30.5396 114.66 30.0048C114.229 29.4516 113.686 29.0274 113.031 28.7324C112.394 28.4373 111.673 28.2898 110.868 28.2898C110.044 28.2898 109.313 28.4465 108.677 28.76C108.04 29.0551 107.497 29.4793 107.047 30.0325C106.617 30.5673 106.28 31.222 106.036 31.9965C105.811 32.7527 105.699 33.5917 105.699 34.5138ZM120.559 34.5138C120.559 36.1551 120.306 37.6028 119.801 38.8568C119.314 40.0924 118.64 41.1344 117.778 41.9827C116.917 42.8126 115.887 43.4396 114.688 43.8638C113.508 44.2879 112.235 44.5 110.868 44.5C109.538 44.5 108.283 44.2879 107.104 43.8638C105.924 43.4396 104.894 42.8126 104.014 41.9827C103.133 41.1344 102.441 40.0924 101.935 38.8568C101.429 37.6028 101.176 36.1551 101.176 34.5138C101.176 32.8725 101.439 31.4341 101.963 30.1985C102.487 28.9444 103.19 27.8933 104.07 27.045C104.969 26.1966 105.999 25.5604 107.16 25.1362C108.34 24.7121 109.576 24.5 110.868 24.5C112.198 24.5 113.452 24.7121 114.632 25.1362C115.812 25.5604 116.842 26.1966 117.722 27.045C118.602 27.8933 119.295 28.9444 119.801 30.1985C120.306 31.4341 120.559 32.8725 120.559 34.5138Z" fill="#3B3B49"/>
    <path d="M128.594 40.5996C128.8 40.618 129.035 40.6365 129.297 40.6549C129.578 40.6549 129.905 40.6549 130.28 40.6549C132.471 40.6549 134.091 40.1109 135.14 39.0228C136.207 37.9348 136.741 36.4318 136.741 34.5138C136.741 32.5037 136.235 30.9823 135.224 29.9495C134.213 28.9168 132.611 28.4004 130.42 28.4004C130.121 28.4004 129.812 28.4096 129.493 28.4281C129.175 28.4281 128.875 28.4465 128.594 28.4834V40.5996ZM141.264 34.5138C141.264 36.1736 141.001 37.6213 140.477 38.8568C139.953 40.0924 139.204 41.116 138.23 41.9274C137.275 42.7388 136.104 43.3474 134.718 43.7531C133.332 44.1588 131.778 44.3617 130.055 44.3617C129.269 44.3617 128.351 44.3248 127.302 44.251C126.254 44.1957 125.224 44.0666 124.212 43.8638V25.1916C125.224 25.0071 126.272 24.8873 127.358 24.832C128.463 24.7582 129.409 24.7213 130.196 24.7213C131.862 24.7213 133.37 24.9057 134.718 25.2746C136.085 25.6434 137.256 26.2243 138.23 27.0173C139.204 27.8103 139.953 28.8246 140.477 30.0602C141.001 31.2958 141.264 32.7803 141.264 34.5138Z" fill="#3B3B49"/>
    <path d="M144.924 44.1127V24.9426H158.071V28.5664H149.306V32.3285L157.087 32.3285V35.8693H149.306V40.4889H158.717V44.1127H144.924Z" fill="#3B3B49"/>
    <path d="M167.662 24.7213C170.584 24.7213 172.822 25.2377 174.376 26.2704C175.93 27.2847 176.708 28.8707 176.708 31.0284C176.708 32.3746 176.389 33.4719 175.752 34.3202C175.134 35.1501 174.236 35.8047 173.056 36.2842C173.449 36.7637 173.861 37.317 174.292 37.944C174.722 38.5526 175.144 39.198 175.556 39.8804C175.987 40.5443 176.399 41.245 176.792 41.9827C177.185 42.7019 177.55 43.4119 177.887 44.1127H172.971C172.616 43.4857 172.25 42.8495 171.876 42.204C171.52 41.5586 171.145 40.9315 170.752 40.323C170.378 39.7144 170.003 39.1427 169.629 38.6079C169.254 38.0546 168.879 37.5567 168.505 37.1141H166.342V44.1127H161.96V25.2192C162.915 25.0348 163.898 24.9057 164.909 24.832C165.939 24.7582 166.857 24.7213 167.662 24.7213ZM167.915 28.4004C167.597 28.4004 167.306 28.4096 167.044 28.4281C166.801 28.4465 166.567 28.465 166.342 28.4834V33.684H167.578C169.226 33.684 170.406 33.4811 171.117 33.0754C171.829 32.6697 172.185 31.9781 172.185 31.0007C172.185 30.0602 171.82 29.3963 171.089 29.009C170.378 28.6033 169.32 28.4004 167.915 28.4004Z" fill="#3B3B49"/>
    <path d="M186.005 40.8209C186.623 40.8209 187.129 40.7748 187.522 40.6826C187.934 40.5719 188.262 40.4336 188.506 40.2676C188.749 40.0832 188.918 39.8711 189.011 39.6314C189.105 39.3917 189.152 39.1243 189.152 38.8292C189.152 38.2022 188.852 37.6858 188.253 37.2801C187.653 36.8559 186.623 36.4041 185.163 35.9246C184.526 35.7033 183.889 35.4544 183.253 35.1777C182.616 34.8827 182.045 34.5231 181.539 34.0989C181.033 33.6563 180.621 33.1307 180.303 32.5221C179.985 31.8951 179.825 31.139 179.825 30.2538C179.825 29.3686 179.994 28.5756 180.331 27.8748C180.668 27.1556 181.146 26.547 181.764 26.0491C182.382 25.5512 183.131 25.1731 184.011 24.9149C184.891 24.6383 185.884 24.5 186.989 24.5C188.3 24.5 189.433 24.6383 190.388 24.9149C191.343 25.1916 192.129 25.4959 192.747 25.8278L191.483 29.2303C190.94 28.9537 190.332 28.7139 189.657 28.5111C189.002 28.2898 188.206 28.1791 187.27 28.1791C186.221 28.1791 185.462 28.3266 184.994 28.6217C184.545 28.8983 184.32 29.3317 184.32 29.9219C184.32 30.2722 184.404 30.5673 184.573 30.8071C184.741 31.0468 184.975 31.2681 185.275 31.471C185.593 31.6554 185.949 31.8306 186.343 31.9965C186.755 32.1441 187.204 32.3008 187.691 32.4668C188.702 32.8356 189.582 33.2045 190.332 33.5733C191.081 33.9237 191.699 34.3386 192.186 34.8181C192.691 35.2976 193.066 35.8601 193.309 36.5055C193.553 37.151 193.674 37.9348 193.674 38.8568C193.674 40.6457 193.038 42.038 191.764 43.0339C190.491 44.0113 188.571 44.5 186.005 44.5C185.144 44.5 184.367 44.4447 183.674 44.334C182.981 44.2418 182.363 44.1219 181.82 43.9744C181.296 43.8269 180.837 43.6701 180.443 43.5041C180.069 43.3382 179.751 43.1814 179.488 43.0339L180.724 39.6037C181.305 39.9172 182.017 40.2031 182.859 40.4613C183.721 40.701 184.769 40.8209 186.005 40.8209Z" fill="#3B3B49"/>
</svg> -->
<svg width="80" height="87" viewBox="0 0 80 87" fill="none" xmlns="http://www.w3.org/2000/svg">
<path d="M39.8372 0L79.6743 69H0L39.8372 0Z" fill="#BD00FF"/>
<path d="M40 20L63 60H17L40 20Z" fill="white" fill-opacity="0.7"/>
<path d="M40 26L58 57H22L40 26Z" fill="white"/>
<path d="M7.31756 87C5.04456 87 3.30955 86.3933 2.11253 85.1798C0.92896 83.9663 0.337173 82.243 0.337173 80.0097C0.337173 78.8995 0.518744 77.9119 0.881886 77.047C1.24503 76.1692 1.74267 75.4334 2.3748 74.8396C3.00694 74.2328 3.76012 73.7746 4.63435 73.4647C5.50858 73.1549 6.45678 73 7.47896 73C8.07074 73 8.60873 73.0452 9.09292 73.1355C9.57711 73.213 10.0008 73.3098 10.3639 73.426C10.7271 73.5293 11.0297 73.639 11.2718 73.7552C11.5139 73.8714 11.6887 73.9617 11.7963 74.0263L10.8885 76.4661C10.4581 76.2467 9.9537 76.0595 9.37536 75.9046C8.81048 75.7497 8.16489 75.6722 7.43861 75.6722C6.95442 75.6722 6.47696 75.7497 6.00622 75.9046C5.54893 76.0595 5.13871 76.3112 4.77557 76.6598C4.42588 76.9954 4.14344 77.4343 3.92824 77.9765C3.71305 78.5187 3.60545 79.177 3.60545 79.9516C3.60545 80.5712 3.6727 81.1521 3.80719 81.6943C3.95514 82.2236 4.18378 82.6819 4.49313 83.0692C4.81592 83.4564 5.23286 83.7663 5.74395 83.9986C6.25504 84.2181 6.87372 84.3278 7.60001 84.3278C8.05729 84.3278 8.46751 84.302 8.83065 84.2503C9.19379 84.1987 9.51659 84.1406 9.79903 84.0761C10.0815 83.9986 10.3303 83.9147 10.5455 83.8243C10.7607 83.734 10.9557 83.6501 11.1305 83.5726L11.9981 85.9931C11.5542 86.2513 10.9288 86.4836 10.1218 86.6902C9.31484 86.8967 8.38009 87 7.31756 87Z" fill="#3B3B49"/>
<path d="M16.155 80.0097C16.155 80.6681 16.2357 81.2619 16.397 81.7911C16.5719 82.3204 16.814 82.7787 17.1233 83.166C17.4461 83.5403 17.8362 83.8308 18.2935 84.0373C18.7507 84.2439 19.2753 84.3472 19.8671 84.3472C20.4454 84.3472 20.9632 84.2439 21.4205 84.0373C21.8912 83.8308 22.2813 83.5403 22.5906 83.166C22.9134 82.7787 23.1555 82.3204 23.3169 81.7911C23.4918 81.2619 23.5792 80.6681 23.5792 80.0097C23.5792 79.3513 23.4918 78.7575 23.3169 78.2282C23.1555 77.686 22.9134 77.2278 22.5906 76.8534C22.2813 76.4661 21.8912 76.1692 21.4205 75.9627C20.9632 75.7561 20.4454 75.6528 19.8671 75.6528C19.2753 75.6528 18.7507 75.7626 18.2935 75.982C17.8362 76.1886 17.4461 76.4855 17.1233 76.8728C16.814 77.2471 16.5719 77.7054 16.397 78.2476C16.2357 78.7769 16.155 79.3642 16.155 80.0097ZM26.8273 80.0097C26.8273 81.1586 26.6457 82.172 26.2826 83.0498C25.9329 83.9147 25.4487 84.6441 24.83 85.2379C24.2113 85.8188 23.4716 86.2577 22.6108 86.5546C21.7635 86.8515 20.8489 87 19.8671 87C18.9121 87 18.011 86.8515 17.1637 86.5546C16.3163 86.2577 15.5766 85.8188 14.9445 85.2379C14.3123 84.6441 13.8147 83.9147 13.4516 83.0498C13.0884 82.172 12.9069 81.1586 12.9069 80.0097C12.9069 78.8608 13.0951 77.8539 13.4717 76.9889C13.8483 76.1111 14.3527 75.3753 14.9848 74.7815C15.6304 74.1876 16.3701 73.7423 17.204 73.4454C18.0514 73.1485 18.939 73 19.8671 73C20.822 73 21.7231 73.1485 22.5705 73.4454C23.4178 73.7423 24.1575 74.1876 24.7897 74.7815C25.4218 75.3753 25.9194 76.1111 26.2826 76.9889C26.6457 77.8539 26.8273 78.8608 26.8273 80.0097Z" fill="#3B3B49"/>
<path d="M32.598 84.2697C32.7459 84.2826 32.9141 84.2955 33.1023 84.3084C33.3041 84.3084 33.5395 84.3084 33.8085 84.3084C35.3821 84.3084 36.5455 83.9276 37.2986 83.166C38.0653 82.4043 38.4486 81.3522 38.4486 80.0097C38.4486 78.6026 38.0855 77.5376 37.3592 76.8147C36.6329 76.0917 35.4829 75.7303 33.9093 75.7303C33.6941 75.7303 33.4722 75.7367 33.2436 75.7497C33.0149 75.7497 32.7997 75.7626 32.598 75.7884V84.2697ZM41.6967 80.0097C41.6967 81.1715 41.5084 82.1849 41.1318 83.0498C40.7552 83.9147 40.2172 84.6312 39.5179 85.1992C38.8319 85.7672 37.9913 86.1932 36.996 86.4772C36.0008 86.7612 34.8844 86.9032 33.6471 86.9032C33.0822 86.9032 32.4231 86.8774 31.67 86.8257C30.9168 86.787 30.177 86.6966 29.4508 86.5546V73.4841C30.177 73.355 30.9302 73.2711 31.7103 73.2324C32.5038 73.1807 33.183 73.1549 33.7479 73.1549C34.945 73.1549 36.0277 73.284 36.996 73.5422C37.9779 73.8004 38.8185 74.207 39.5179 74.7621C40.2172 75.3172 40.7552 76.0272 41.1318 76.8921C41.5084 77.757 41.6967 78.7962 41.6967 80.0097Z" fill="#3B3B49"/>
<path d="M44.3255 86.7289V73.3098H53.7672V75.8465H47.4728V78.4799H53.0611V80.9585H47.4728V84.1923H54.2312V86.7289H44.3255Z" fill="#3B3B49"/>
<path d="M60.6557 73.1549C62.7539 73.1549 64.3611 73.5164 65.4774 74.2393C66.5938 74.9493 67.1519 76.0595 67.1519 77.5698C67.1519 78.5122 66.9233 79.2803 66.466 79.8741C66.0221 80.455 65.3766 80.9133 64.5292 81.249C64.8117 81.5846 65.1076 81.9719 65.4169 82.4108C65.7263 82.8368 66.0289 83.2886 66.3248 83.7663C66.6341 84.231 66.93 84.7215 67.2124 85.2379C67.4949 85.7414 67.7572 86.2384 67.9992 86.7289H64.4687C64.2132 86.29 63.9509 85.8446 63.6819 85.3928C63.4264 84.941 63.1574 84.5021 62.8749 84.0761C62.6059 83.6501 62.3369 83.2499 62.0679 82.8755C61.7989 82.4882 61.5299 82.1397 61.261 81.8299H59.7075V86.7289H56.5603V73.5035C57.2462 73.3744 57.9523 73.284 58.6786 73.2324C59.4183 73.1807 60.0774 73.1549 60.6557 73.1549ZM60.8373 75.7303C60.6086 75.7303 60.4002 75.7367 60.2119 75.7497C60.037 75.7626 59.8689 75.7755 59.7075 75.7884V79.4288H60.5952C61.7788 79.4288 62.6261 79.2868 63.1372 79.0028C63.6483 78.7188 63.9038 78.2347 63.9038 77.5505C63.9038 76.8921 63.6415 76.4274 63.117 76.1563C62.6059 75.8723 61.846 75.7303 60.8373 75.7303Z" fill="#3B3B49"/>
<path d="M73.8295 84.4246C74.2734 84.4246 74.6365 84.3923 74.919 84.3278C75.2148 84.2503 75.4502 84.1535 75.6251 84.0373C75.7999 83.9083 75.921 83.7598 75.9882 83.592C76.0554 83.4242 76.0891 83.237 76.0891 83.0304C76.0891 82.5915 75.8739 82.2301 75.4435 81.9461C75.0131 81.6491 74.2734 81.3329 73.2243 80.9972C72.767 80.8423 72.3097 80.668 71.8524 80.4744C71.3951 80.2679 70.9849 80.0161 70.6218 79.7192C70.2586 79.4094 69.9627 79.0415 69.7341 78.6155C69.5055 78.1766 69.3911 77.6473 69.3911 77.0277C69.3911 76.408 69.5122 75.8529 69.7543 75.3624C69.9964 74.8589 70.3393 74.4329 70.7832 74.0844C71.227 73.7358 71.765 73.4712 72.3971 73.2905C73.0293 73.0968 73.7421 73 74.5356 73C75.4771 73 76.2908 73.0968 76.9768 73.2905C77.6627 73.4841 78.2276 73.6971 78.6714 73.9295L77.7636 76.3112C77.3735 76.1176 76.9364 75.9497 76.4522 75.8077C75.9815 75.6528 75.4099 75.5754 74.7374 75.5754C73.9842 75.5754 73.4395 75.6787 73.1032 75.8852C72.7804 76.0788 72.6191 76.3822 72.6191 76.7953C72.6191 77.0406 72.6796 77.2471 72.8006 77.4149C72.9217 77.5828 73.0898 77.7377 73.305 77.8797C73.5336 78.0088 73.7892 78.1314 74.0716 78.2476C74.3675 78.3509 74.6903 78.4606 75.04 78.5768C75.7663 78.8349 76.3984 79.0931 76.9364 79.3513C77.4744 79.5966 77.9182 79.887 78.2679 80.2227C78.6311 80.5583 78.9001 80.9521 79.0749 81.4039C79.2498 81.8557 79.3372 82.4043 79.3372 83.0498C79.3372 84.302 78.8799 85.2766 77.9653 85.9737C77.0507 86.6579 75.6721 87 73.8295 87C73.2108 87 72.6527 86.9613 72.155 86.8838C71.6574 86.8193 71.2136 86.7354 70.8235 86.6321C70.4469 86.5288 70.1174 86.4191 69.835 86.3029C69.566 86.1867 69.3373 86.077 69.149 85.9737L70.0367 83.5726C70.4537 83.7921 70.9647 83.9922 71.57 84.1729C72.1887 84.3407 72.9418 84.4246 73.8295 84.4246Z" fill="#3B3B49"/>
</svg>
